<svg width="128" height="128" viewBox="0 0 128 128" fill="none" xmlns="http://www.w3.org/2000/svg">
<path id="Union" fill-rule="evenodd" clip-rule="evenodd" d="M74.6667 112V106.667C74.6667 103.723 77.056 101.333 80 101.333C82.944 101.333 85.3333 103.723 85.3333 106.667V112C85.3333 120.837 78.1707 128 69.3333 128H16C7.16267 128 0 120.837 0 112V16C0 7.16267 7.16267 0 16 0H69.3333C78.1707 0 85.3333 7.16267 85.3333 16V21.3333C85.3333 24.2773 82.944 26.6667 80 26.6667C77.056 26.6667 74.6667 24.2773 74.6667 21.3333V16C74.6667 13.056 72.2773 10.6667 69.3333 10.6667H66.6667C63.7227 10.6667 61.3333 13.056 61.3333 16C61.3333 18.944 58.944 21.3333 56 21.3333H29.3333C26.3893 21.3333 24 18.944 24 16C24 13.056 21.6107 10.6667 18.6667 10.6667H16C13.056 10.6667 10.6667 13.056 10.6667 16V112C10.6667 114.944 13.056 117.333 16 117.333H69.3333C72.2773 117.333 74.6667 114.944 74.6667 112ZM128.001 53.3334V46.6667C128.001 41.5201 123.814 37.3334 118.667 37.3334H62.6673C57.5207 37.3334 53.334 41.5201 53.334 46.6667V53.3334H128.001ZM53.334 64.0005V81.3338C53.334 86.4805 57.5207 90.6671 62.6673 90.6671H118.667C123.814 90.6671 128.001 86.4805 128.001 81.3338V64.0005H53.334Z" fill="url(#paint0_radial_871_4119)"/>
<defs>
<radialGradient id="paint0_radial_871_4119" cx="0" cy="0" r="1" gradientUnits="userSpaceOnUse" gradientTransform="translate(90.6676 77.3336) rotate(90) scale(13.3333 37.3331)">
<stop stop-color="#8D60F1"/>
<stop offset="1" stop-color="#8B60EF"/>
</radialGradient>
</defs>
</svg>
