<svg width="128" height="128" viewBox="0 0 128 128" fill="none" xmlns="http://www.w3.org/2000/svg">
<path id="Union" fill-rule="evenodd" clip-rule="evenodd" d="M87.9997 69.272H82.667V74.6055C82.667 77.5548 80.283 79.9388 77.3337 79.9388C74.3844 79.9388 72.0004 77.5495 72.0004 74.6055V69.272H55.9998V74.6055C55.9998 77.5548 53.6158 79.9388 50.6664 79.9388C47.7171 79.9388 45.3331 77.5495 45.3331 74.6055V69.272H39.9997C38.5277 69.272 37.333 68.0773 37.333 66.6053V60.36C37.333 56.7973 38.7197 53.448 41.237 50.9307L47.9997 44.168V29.0107C47.9997 22.5733 50.1597 16.2213 54.085 11.1227L61.8877 0.984C62.8957 -0.328 65.109 -0.328 66.1171 0.984L73.9197 11.128C77.8397 16.2213 79.9997 22.5733 79.9997 29.0107V44.168L86.7624 50.9307C89.2797 53.448 90.6664 56.7973 90.6664 60.36V66.6053C90.6664 68.0827 89.4717 69.272 87.9997 69.272ZM118.667 21.3307H89.8667C90.4 23.8374 90.6667 26.4507 90.6667 29.0107V31.9974H117.333V95.9974H10.6667V31.9974H37.3333V29.0107C37.3333 26.4507 37.6 23.8374 38.1333 21.3307H9.33333C4.21333 21.3307 0 25.5441 0 30.6641V97.3307C0 102.451 4.21333 106.664 9.33333 106.664H118.667C123.787 106.664 128 102.451 128 97.3307V30.6641C128 25.5441 123.787 21.3307 118.667 21.3307ZM74.6669 117.331H85.3335C88.2829 117.331 90.6669 119.72 90.6669 122.664C90.6669 125.608 88.2829 127.998 85.3335 127.998H42.6669C39.7229 127.998 37.3335 125.608 37.3335 122.664C37.3335 119.72 39.7229 117.331 42.6669 117.331H53.3335V106.664H74.6669V117.331Z" fill="#8D60F1"/>
</svg>
