<svg width="128" height="102" viewBox="0 0 128 102" fill="none" xmlns="http://www.w3.org/2000/svg">
<path id="Union" fill-rule="evenodd" clip-rule="evenodd" d="M122.183 0H5.82004C2.60635 0 0 2.60635 0 5.82004V78.5501C0 81.7638 2.60635 84.3701 5.82004 84.3701H116.864C116.79 84.305 116.712 84.245 116.635 84.1853C116.533 84.1076 116.433 84.0303 116.344 83.9425L108.29 75.8838C103.647 78.5065 98.3878 79.9091 92.9981 79.9091C85.6502 79.9091 78.6944 77.3763 73.1004 72.7382H11.6346V11.6346H116.365V28.0353C121.42 33.741 124.217 40.9854 124.217 48.6819C124.217 54.0716 122.817 59.3279 120.197 63.966L128 71.7741V5.81731C128.003 2.60635 125.396 0 122.183 0ZM49.4556 61.0896V34.909C49.4556 32.4987 51.411 30.5433 53.8213 30.5433C56.2289 30.5433 58.1843 32.4987 58.1843 34.909V61.0896C58.1843 63.4999 56.2289 65.4553 53.8213 65.4553C51.411 65.4553 49.4556 63.4999 49.4556 61.0896ZM34.91 40.7295V61.0928C34.91 63.5031 36.8655 65.4585 39.2757 65.4585C41.6833 65.4585 43.6387 63.5031 43.6387 61.0928V40.7295C43.6387 38.3192 41.6833 36.3638 39.2757 36.3638C36.8655 36.3638 34.91 38.3192 34.91 40.7295ZM20.365 61.0896V46.5435C20.365 44.136 22.3177 42.1833 24.728 42.1806C27.1383 42.1806 29.0937 44.1333 29.0937 46.5435V61.0896C29.0937 63.4998 27.1383 65.4553 24.728 65.4553C22.3205 65.4553 20.365 63.4998 20.365 61.0896ZM27.6344 90.1842H100.37C103.578 90.1842 106.185 92.7878 106.185 96.0015C106.185 99.2152 103.581 101.822 100.365 101.822H27.6344C24.4208 101.822 21.8171 99.2152 21.8171 96.0015C21.8171 92.7878 24.4208 90.1842 27.6344 90.1842ZM113.28 66.6617C114.037 66.58 114.816 66.817 115.396 67.3998L124.155 76.153C125.168 77.1661 125.168 78.8138 124.155 79.8324C123.643 80.339 122.973 80.5895 122.311 80.5895C121.641 80.5895 120.977 80.3417 120.467 79.8324L111.717 71.0819C111.131 70.4936 110.897 69.7229 110.979 68.9603L109.75 67.7402C105.115 71.8309 99.2434 74.0832 92.9985 74.0832C86.2198 74.0832 79.8442 71.4468 75.0454 66.6454C70.2467 61.8494 67.5995 55.4683 67.5995 48.6869C67.5995 41.9054 70.2412 35.5271 75.0454 30.7311C79.8442 25.9269 86.2198 23.2879 92.9985 23.2879C99.7881 23.2879 106.164 25.9242 110.965 30.7311C115.758 35.5271 118.397 41.9054 118.397 48.6869C118.397 54.9236 116.142 60.7981 112.057 65.4389L113.28 66.6617ZM92.9985 68.8786C98.3937 68.8786 103.467 66.7707 107.28 62.9551C111.088 59.1422 113.19 54.0766 113.19 48.6841C113.19 43.2944 111.088 38.2233 107.28 34.4105C103.467 30.5922 98.3937 28.4924 92.9985 28.4924C87.6169 28.4924 82.5404 30.5949 78.7275 34.4105C74.912 38.2233 72.8122 43.2944 72.8122 48.6841C72.8122 54.0766 74.9174 59.1504 78.7275 62.9605C82.5404 66.7761 87.6115 68.8786 92.9985 68.8786Z" fill="#8D60F1"/>
</svg>
